<svg width="30" height="17" viewBox="0 0 30 17" fill="none" xmlns="http://www.w3.org/2000/svg">
<path d="M25.8146 16.2396C25.3062 16.24 24.8091 16.0896 24.3862 15.8074C23.9633 15.5252 23.6337 15.124 23.4388 14.6544C23.244 14.1848 23.1929 13.668 23.2918 13.1694C23.3908 12.6707 23.6354 12.2126 23.9948 11.853C24.3541 11.4934 24.812 11.2484 25.3106 11.1491C25.8092 11.0498 26.326 11.1006 26.7957 11.2951C27.2655 11.4895 27.6669 11.8189 27.9494 12.2416C28.2319 12.6643 28.3827 13.1612 28.3827 13.6696C28.3824 14.3508 28.1117 15.004 27.6302 15.4859C27.1488 15.9677 26.4957 16.2388 25.8146 16.2396ZM25.8146 12.0371C25.4916 12.0367 25.1758 12.1322 24.9071 12.3113C24.6384 12.4905 24.4288 12.7453 24.305 13.0436C24.1811 13.3419 24.1485 13.6702 24.2113 13.9869C24.2741 14.3037 24.4294 14.5948 24.6577 14.8233C24.8859 15.0518 25.1768 15.2075 25.4935 15.2706C25.8102 15.3338 26.1386 15.3015 26.437 15.178C26.7354 15.0545 26.9905 14.8453 27.1699 14.5768C27.3494 14.3083 27.4452 13.9926 27.4452 13.6696C27.445 13.237 27.2732 12.8222 26.9675 12.5161C26.6618 12.21 26.2471 12.0378 25.8146 12.0371Z" fill="white"/>
<path d="M12.2717 16.2396C11.7633 16.2401 11.2662 16.0898 10.8432 15.8077C10.4203 15.5256 10.0905 15.1244 9.89557 14.6548C9.70067 14.1853 9.64942 13.6685 9.7483 13.1698C9.84718 12.6711 10.0918 12.2129 10.4511 11.8532C10.8104 11.4936 11.2683 11.2485 11.7669 11.1492C12.2655 11.0498 12.7824 11.1006 13.2521 11.295C13.7219 11.4894 14.1234 11.8188 14.4059 12.2415C14.6884 12.6642 14.8392 13.1612 14.8392 13.6696C14.8387 14.3506 14.5681 15.0037 14.0868 15.4854C13.6055 15.9672 12.9527 16.2384 12.2717 16.2396ZM12.2717 12.0371C11.9487 12.0366 11.6329 12.1319 11.3641 12.311C11.0953 12.4901 10.8857 12.7449 10.7617 13.0431C10.6378 13.3414 10.6051 13.6697 10.6678 13.9866C10.7305 14.3034 10.8858 14.5945 11.114 14.8231C11.3422 15.0516 11.6331 15.2074 11.9498 15.2706C12.2666 15.3337 12.5949 15.3016 12.8934 15.1781C13.1918 15.0546 13.4469 14.8454 13.6264 14.5768C13.8059 14.3083 13.9017 13.9926 13.9017 13.6696C13.9014 13.2372 13.7296 12.8225 13.4241 12.5165C13.1186 12.2105 12.7042 12.0381 12.2717 12.0371Z" fill="white"/>
<path d="M29.1959 14.1383H27.914C27.7897 14.1383 27.6704 14.0889 27.5825 14.001C27.4946 13.9131 27.4452 13.7938 27.4452 13.6695C27.4452 13.5452 27.4946 13.426 27.5825 13.338C27.6704 13.2501 27.7897 13.2008 27.914 13.2008H29.0634V10.7151C29.0631 10.3791 28.977 10.0487 28.8134 9.75513L26.2759 5.20576C26.2542 5.16694 26.2225 5.13459 26.1842 5.11207C26.1459 5.08955 26.1022 5.07766 26.0577 5.07764H22.5996V13.2026H23.7159C23.8402 13.2026 23.9594 13.252 24.0473 13.3399C24.1352 13.4278 24.1846 13.5471 24.1846 13.6714C24.1846 13.7957 24.1352 13.9149 24.0473 14.0028C23.9594 14.0907 23.8402 14.1401 23.7159 14.1401H22.1309C22.0065 14.1401 21.8873 14.0907 21.7994 14.0028C21.7115 13.9149 21.6621 13.7957 21.6621 13.6714V4.60889C21.6621 4.48457 21.7115 4.36534 21.7994 4.27743C21.8873 4.18952 22.0065 4.14014 22.1309 4.14014H26.0577C26.2692 4.14003 26.4769 4.1964 26.6593 4.30342C26.8417 4.41044 26.9922 4.56423 27.0952 4.74889L29.6321 9.29888C29.8733 9.73197 30 10.2194 30.0002 10.7151V13.3339C29.9999 13.5471 29.9151 13.7515 29.7643 13.9023C29.6135 14.0531 29.4091 14.1379 29.1959 14.1383Z" fill="white"/>
<path d="M10.1721 14.1382H5.67773C5.55341 14.1382 5.43419 14.0888 5.34628 14.0009C5.25837 13.913 5.20898 13.7938 5.20898 13.6695V10.0645C5.20898 9.94013 5.25837 9.8209 5.34628 9.733C5.43419 9.64509 5.55341 9.5957 5.67773 9.5957C5.80205 9.5957 5.92128 9.64509 6.00919 9.733C6.0971 9.8209 6.14648 9.94013 6.14648 10.0645V13.2007H10.1721C10.2964 13.2007 10.4157 13.2501 10.5036 13.338C10.5915 13.4259 10.6409 13.5451 10.6409 13.6695C10.6409 13.7938 10.5915 13.913 10.5036 14.0009C10.4157 14.0888 10.2964 14.1382 10.1721 14.1382Z" fill="white"/>
<path d="M5.67773 8.4014C5.55341 8.4014 5.43419 8.35201 5.34628 8.2641C5.25837 8.1762 5.20898 8.05697 5.20898 7.93265V4.78516C5.20898 4.66084 5.25837 4.54161 5.34628 4.4537C5.43419 4.36579 5.55341 4.31641 5.67773 4.31641C5.80205 4.31641 5.92128 4.36579 6.00919 4.4537C6.0971 4.54161 6.14648 4.66084 6.14648 4.78516V7.93452C6.14599 8.05852 6.09638 8.17726 6.00853 8.26477C5.92068 8.35227 5.80173 8.4014 5.67773 8.4014Z" fill="white"/>
<path d="M22.1309 14.1381H14.3702C14.2459 14.1381 14.1267 14.0887 14.0388 14.0008C13.9509 13.9129 13.9015 13.7937 13.9015 13.6694C13.9015 13.545 13.9509 13.4258 14.0388 13.3379C14.1267 13.25 14.2459 13.2006 14.3702 13.2006H21.6621V0.9375H6.14648V2.86812C6.14648 2.99244 6.0971 3.11167 6.00919 3.19958C5.92128 3.28749 5.80206 3.33687 5.67773 3.33687C5.55341 3.33687 5.43419 3.28749 5.34628 3.19958C5.25837 3.11167 5.20898 2.99244 5.20898 2.86812V0.851249C5.20932 0.625477 5.29919 0.409056 5.4589 0.24947C5.6186 0.0898832 5.83509 0.00016528 6.06086 0H21.7484C21.974 0.000330644 22.1904 0.0901216 22.3499 0.24969C22.5095 0.409259 22.5993 0.625585 22.5996 0.851249V13.6694C22.5996 13.7937 22.5502 13.9129 22.4623 14.0008C22.3744 14.0887 22.2552 14.1381 22.1309 14.1381Z" fill="white"/>
<path d="M7.53091 10.5332H1.58154C1.45722 10.5332 1.33799 10.4838 1.25009 10.3959C1.16218 10.308 1.11279 10.1888 1.11279 10.0645C1.11279 9.94013 1.16218 9.8209 1.25009 9.733C1.33799 9.64509 1.45722 9.5957 1.58154 9.5957H7.53091C7.65523 9.5957 7.77446 9.64509 7.86237 9.733C7.95028 9.8209 7.99966 9.94013 7.99966 10.0645C7.99966 10.1888 7.95028 10.308 7.86237 10.3959C7.77446 10.4838 7.65523 10.5332 7.53091 10.5332Z" fill="white"/>
<path d="M12.2716 8.40136H3.96973C3.84541 8.40136 3.72618 8.35197 3.63827 8.26407C3.55036 8.17616 3.50098 8.05693 3.50098 7.93261C3.50098 7.80829 3.55036 7.68907 3.63827 7.60116C3.72618 7.51325 3.84541 7.46387 3.96973 7.46387H12.2716C12.3959 7.46387 12.5152 7.51325 12.6031 7.60116C12.691 7.68907 12.7404 7.80829 12.7404 7.93261C12.7404 8.05693 12.691 8.17616 12.6031 8.26407C12.5152 8.35197 12.3959 8.40136 12.2716 8.40136Z" fill="white"/>
<path d="M3.7116 5.92627H0.469726C0.345406 5.92627 0.226178 5.87688 0.13827 5.78898C0.0503626 5.70107 0.000976563 5.58184 0.000976562 5.45752C0.000976562 5.3332 0.0503626 5.21397 0.13827 5.12606C0.226178 5.03816 0.345406 4.98877 0.469726 4.98877H3.7116C3.83592 4.98877 3.95515 5.03816 4.04306 5.12606C4.13096 5.21397 4.18035 5.3332 4.18035 5.45752C4.18035 5.58184 4.13096 5.70107 4.04306 5.78898C3.95515 5.87688 3.83592 5.92627 3.7116 5.92627Z" fill="white"/>
<path d="M8.90951 3.33692H3.18701C3.06269 3.33692 2.94346 3.28753 2.85556 3.19962C2.76765 3.11171 2.71826 2.99249 2.71826 2.86817C2.71826 2.74384 2.76765 2.62462 2.85556 2.53671C2.94346 2.4488 3.06269 2.39941 3.18701 2.39941H8.90951C9.03383 2.39941 9.15306 2.4488 9.24097 2.53671C9.32888 2.62462 9.37826 2.74384 9.37826 2.86817C9.37826 2.99249 9.32888 3.11171 9.24097 3.19962C9.15306 3.28753 9.03383 3.33692 8.90951 3.33692Z" fill="white"/>
</svg>
