<svg width="22" height="22" viewBox="0 0 22 22" fill="none" xmlns="http://www.w3.org/2000/svg">
<path d="M21.0074 6.37769L20.9898 6.35083C20.9654 6.30616 20.9373 6.26338 20.906 6.22274L17.6034 1.17183C17.3655 0.808027 16.9226 0.582031 16.4475 0.582031H5.08166C4.60582 0.582031 4.16256 0.80856 3.92475 1.17335L0.568361 6.32433C0.53813 6.37076 0.516339 6.41932 0.500945 6.46867C0.453699 6.5815 0.427734 6.70344 0.427734 6.83067V20.1347C0.427734 20.9327 1.16165 21.5819 2.06374 21.5819H19.4649C20.367 21.5819 21.1009 20.9327 21.1009 20.1347V6.7819C21.1009 6.76406 21.1003 6.74634 21.0992 6.7287C21.1087 6.61029 21.0796 6.48819 21.0074 6.37769ZM11.4838 1.81295H16.4152L19.0131 5.78625H11.4838V1.81295ZM5.11407 1.81295H10.0924V5.78625H2.52503L5.11407 1.81295ZM19.7094 20.1347C19.7094 20.254 19.5997 20.351 19.4649 20.351H2.06374C1.92891 20.351 1.81921 20.254 1.81921 20.1347V7.01717H19.7094V20.1347Z" fill="white"/>
<path d="M13.923 11.6578C13.6513 11.4175 13.2107 11.4175 12.939 11.6578L9.83245 14.4059L8.63789 13.3492C8.36624 13.1089 7.92567 13.1089 7.65397 13.3492C7.38227 13.5895 7.38227 13.9792 7.65397 14.2196L9.34056 15.7115C9.47641 15.8316 9.6545 15.8918 9.8325 15.8918C10.0105 15.8918 10.1886 15.8316 10.3244 15.7115L13.923 12.5282C14.1947 12.2878 14.1947 11.8981 13.923 11.6578Z" fill="white"/>
</svg>
