<svg width="20" height="24" viewBox="0 0 20 24" fill="none" xmlns="http://www.w3.org/2000/svg">
<path d="M16.7918 3.14444H14.6206V2.1731C14.6206 1.85884 14.2778 1.71601 13.9635 1.71601H12.2779C11.878 0.573236 10.8781 0.00184981 9.73528 0.00184981C8.60509 -0.0406391 7.5771 0.652362 7.19262 1.71601H5.53561C5.22134 1.71601 4.90708 1.85884 4.90708 2.1731V3.14444H2.73577C1.44907 3.15817 0.396417 4.1732 0.335938 5.45853V21.8287C0.335938 23.0857 1.47871 23.9999 2.73577 23.9999H16.7918C18.0489 23.9999 19.1917 23.0857 19.1917 21.8287V5.45859C19.1312 4.1732 18.0785 3.15817 16.7918 3.14444ZM6.04979 2.85878H7.62112C7.89541 2.82531 8.11573 2.61664 8.16396 2.34454C8.33315 1.60773 8.97956 1.07884 9.73528 1.05893C10.484 1.08163 11.1207 1.61216 11.278 2.34454C11.3292 2.62605 11.5641 2.8374 11.8494 2.85878H13.4779V5.14432H6.04979V2.85878ZM18.0489 21.8287C18.0489 22.4573 17.4204 22.8572 16.7918 22.8572H2.73577C2.10724 22.8572 1.47871 22.4573 1.47871 21.8287V5.45859C1.537 4.80435 2.07902 4.29924 2.73577 4.28727H4.90702V5.74431C4.93721 6.06442 5.21445 6.30388 5.53555 6.28715H13.9634C14.2905 6.30503 14.5764 6.06885 14.6205 5.74431V4.28721H16.7918C17.4485 4.29925 17.9905 4.8043 18.0488 5.45853V21.8287H18.0489Z" fill="white"/>
<path d="M7.56395 12.7724C7.34965 12.5465 6.99388 12.5337 6.76399 12.7438L4.93554 14.4865L4.16418 13.6866C3.94988 13.4607 3.59411 13.448 3.36422 13.658C3.14292 13.8899 3.14292 14.2547 3.36422 14.4865L4.53554 15.6864C4.63692 15.8 4.78336 15.8627 4.93549 15.8579C5.0862 15.8557 5.22996 15.7941 5.33544 15.6864L7.56384 13.5723C7.78476 13.3697 7.79953 13.0263 7.59681 12.8054C7.58642 12.7939 7.57543 12.7829 7.56395 12.7724Z" fill="white"/>
<path d="M15.7634 14.001H9.19248C8.8769 14.001 8.62109 14.2568 8.62109 14.5724C8.62109 14.8879 8.8769 15.1437 9.19248 15.1437H15.7634C16.079 15.1437 16.3348 14.8879 16.3348 14.5724C16.3348 14.2568 16.079 14.001 15.7634 14.001Z" fill="white"/>
<path d="M7.56395 8.20108C7.34965 7.97519 6.99388 7.96245 6.76399 8.17254L4.93554 9.91524L4.16418 9.11528C3.94988 8.88938 3.59411 8.87664 3.36422 9.08673C3.14292 9.31859 3.14292 9.68338 3.36422 9.91524L4.53554 11.1152C4.63692 11.2287 4.78336 11.2915 4.93549 11.2866C5.0862 11.2845 5.22996 11.2228 5.33544 11.1152L7.56384 9.00105C7.78476 8.79839 7.79953 8.45498 7.59681 8.23411C7.58642 8.22257 7.57543 8.21158 7.56395 8.20108Z" fill="white"/>
<path d="M15.7634 9.42969H9.19248C8.8769 9.42969 8.62109 9.6855 8.62109 10.0011C8.62109 10.3167 8.8769 10.5725 9.19248 10.5725H15.7634C16.079 10.5725 16.3348 10.3167 16.3348 10.0011C16.3348 9.6855 16.079 9.42969 15.7634 9.42969Z" fill="white"/>
<path d="M7.56395 17.3432C7.34965 17.1173 6.99388 17.1046 6.76399 17.3146L4.93554 19.0573L4.16418 18.2573C3.94988 18.0314 3.59411 18.0188 3.36422 18.2288C3.14292 18.4607 3.14292 18.8255 3.36422 19.0573L4.53554 20.2572C4.63692 20.3707 4.78336 20.4335 4.93549 20.4287C5.0862 20.4265 5.22996 20.3649 5.33544 20.2572L7.56384 18.1431C7.78476 17.9405 7.79953 17.597 7.59681 17.3762C7.58642 17.3647 7.57543 17.3537 7.56395 17.3432Z" fill="white"/>
<path d="M15.7634 18.5718H9.19248C8.8769 18.5718 8.62109 18.8276 8.62109 19.1432C8.62109 19.4587 8.8769 19.7145 9.19248 19.7145H15.7634C16.079 19.7145 16.3348 19.4587 16.3348 19.1432C16.3348 18.8276 16.079 18.5718 15.7634 18.5718Z" fill="white"/>
</svg>
